<svg width="155" height="42" viewBox="0 0 155 42" fill="none" xmlns="http://www.w3.org/2000/svg">
<path d="M13.0519 17.0185C18.14 14.6077 22.1219 10.5166 24.4078 5.40275C22.933 3.8686 21.0158 2.77277 18.9511 2.11528L17.845 1.75C17.7713 1.89611 17.6975 2.11528 17.6975 2.26139C15.9278 7.22913 12.3145 11.2472 7.44771 13.5119C4.05569 15.1191 1.54853 18.0413 0.368698 21.5479L0 22.6437C0.147479 22.7168 0.368702 22.7898 0.516181 22.7898C1.91723 23.3012 3.31829 23.9587 4.6456 24.7623C6.48909 21.4749 9.43867 18.6988 13.0519 17.0185Z" fill="#FD5353"/>
<path d="M34.436 17.3105C31.7076 21.4016 27.9469 24.6891 23.3013 26.8808C19.5406 28.6341 16.6648 31.9216 15.3374 35.8665L14.9688 37.1085C16.3698 38.3504 18.0658 39.3001 19.9093 39.8846L21.0154 40.2498C21.0891 40.1037 21.1629 39.8846 21.1629 39.7384C22.9326 34.7707 26.5459 30.7527 31.4127 28.488C34.8047 26.8808 37.3856 23.9586 38.4917 20.4519L38.8604 19.3561C37.3119 18.9178 35.8371 18.1872 34.436 17.3105Z" fill="#4878B5"/>
<path d="M12.02 33.3086C13.8635 28.9253 17.2556 25.3455 21.6062 23.3C25.5881 21.4006 28.9064 18.4784 31.1924 14.8987C29.4963 13.2915 28.0953 11.4651 27.0629 9.27344C24.3346 14.2412 20.0577 18.2592 14.8222 20.7431C11.7988 22.1311 9.36542 24.542 7.89062 27.4642C9.5129 28.9983 10.8402 30.8977 11.8726 33.0163C11.8726 33.0163 11.9463 33.1624 12.02 33.3086Z" fill="#4878B5"/>
<path d="M47.6484 29.7502H60.0751V26.3377H51.6493V11.3752H47.6484V29.7502Z" fill="#0D0D0D"/>
<path d="M73.0579 16.5202H69.3485V23.7652C69.3485 25.4452 68.2091 26.7052 66.5929 26.7052C65.0826 26.7052 64.0228 25.5502 64.0228 23.949V16.5202H60.3398V24.7627C60.3398 27.7815 62.3005 29.9602 65.2946 29.9602C67.1228 29.9602 68.6066 29.1727 69.3485 27.9127V29.7502H73.0579V16.5202Z" fill="#0D0D0D"/>
<path d="M74.4359 29.7502H78.1453V22.2427C78.1453 20.5365 79.1257 19.4077 80.6625 19.4077C82.0932 19.4077 82.9941 20.5365 82.9941 22.2427V29.7502H86.7035V22.2427C86.7035 20.5365 87.6839 19.4077 89.2207 19.4077C90.6514 19.4077 91.5788 20.5365 91.5788 22.2427V29.7502H95.2618V21.0877C95.2618 18.4365 93.3805 16.3102 90.466 16.3102C88.3198 16.3102 86.6506 17.439 86.0146 18.7252C85.3787 17.1502 84.0274 16.3102 81.9343 16.3102C80.1325 16.3102 78.8607 17.1765 78.1453 18.384V16.5202H74.4359V29.7502Z" fill="#0D0D0D"/>
<path d="M96.5255 10.7715V14.6302H100.447V10.7715H96.5255ZM96.6315 29.7502H100.341V16.5202H96.6315V29.7502Z" fill="#0D0D0D"/>
<path d="M101.724 29.7502H105.433V22.5052C105.433 20.799 106.572 19.5652 108.189 19.5652C109.725 19.5652 110.759 20.7202 110.759 22.3215V29.7502H114.468V21.5077C114.468 18.4627 112.508 16.3102 109.487 16.3102C107.659 16.3102 106.175 17.0715 105.433 18.3577V16.5202H101.724V29.7502Z" fill="#0D0D0D"/>
<path d="M122.205 29.9602C126.312 29.9602 129.253 27.0727 129.253 23.1352C129.253 19.1977 126.312 16.3102 122.205 16.3102C118.098 16.3102 115.157 19.1977 115.157 23.1352C115.157 27.0727 118.098 29.9602 122.205 29.9602ZM122.205 26.8102C120.218 26.8102 118.867 25.314 118.867 23.1352C118.867 20.9302 120.218 19.434 122.205 19.434C124.192 19.434 125.544 20.9302 125.544 23.1352C125.544 25.314 124.192 26.8102 122.205 26.8102Z" fill="#0D0D0D"/>
<path d="M142.688 16.5202H138.978V23.7652C138.978 25.4452 137.839 26.7052 136.223 26.7052C134.712 26.7052 133.652 25.5502 133.652 23.949V16.5202H129.969V24.7627C129.969 27.7815 131.93 29.9602 134.924 29.9602C136.752 29.9602 138.236 29.1727 138.978 27.9127V29.7502H142.688V16.5202Z" fill="#0D0D0D"/>
<path d="M148.941 29.9602C152.067 29.9602 154.134 28.3065 154.134 25.7865C154.134 19.8015 146.821 22.8727 146.821 20.169C146.821 19.329 147.537 18.8827 148.57 18.8827C149.577 18.8827 150.61 19.4865 150.769 20.6152H153.975C153.843 18.0165 151.67 16.3102 148.464 16.3102C145.735 16.3102 143.695 17.964 143.695 20.3002C143.695 25.8652 150.875 23.214 150.875 25.9177C150.875 26.6527 150.08 27.204 148.941 27.204C147.563 27.204 146.636 26.469 146.503 25.2877H143.324C143.456 28.149 145.682 29.9602 148.941 29.9602Z" fill="#0D0D0D"/>
</svg>
